<svg width="4903" height="1024" viewBox="0 0 4903 1024" fill="none" xmlns="http://www.w3.org/2000/svg">
<path d="M4781.88 294.828H4838.91V724.059H4792.92L4572.17 403.362V724.059H4515.15V294.828H4561.13L4781.88 614.912V294.828Z" fill="black"/>
<path d="M4381.47 294.828H4438.5V724.059H4381.47V294.828Z" fill="black"/>
<path d="M3838.25 294.828H3894.67V724.059H3838.25V530.905H3629.77V724.059H3572.75V294.828H3629.77V476.945H3838.25V294.828Z" fill="black"/>
<path fill-rule="evenodd" clip-rule="evenodd" d="M4105.13 294.828L4169.87 294.828L4304.82 724.059H4245.18L4214.66 626.972H4060.34L4029.82 724.059H3970.18L4105.13 294.828ZM4197.79 573.318L4137.5 381.566L4077.21 573.318H4197.79Z" fill="black"/>
<path fill-rule="evenodd" clip-rule="evenodd" d="M3495.45 434.592H3440.45L3440.03 432.551C3437.14 418.462 3432.1 406.15 3424.93 395.574L3424.92 395.556C3417.85 384.927 3409.22 376.018 3399.03 368.812L3399.01 368.802L3399 368.791C3388.92 361.441 3377.72 355.924 3365.39 352.242C3353.03 348.552 3340.14 346.704 3326.71 346.704C3302.23 346.704 3280.12 352.897 3260.3 365.263C3240.66 377.603 3224.94 395.82 3213.18 420.045C3201.6 444.202 3195.74 473.968 3195.74 509.443C3195.74 544.919 3201.6 574.685 3213.18 598.842C3224.94 623.066 3240.66 641.283 3260.3 653.624C3280.11 665.99 3302.23 672.183 3326.71 672.183C3340.14 672.183 3353.03 670.335 3365.39 666.645C3377.73 662.961 3388.93 657.506 3399.02 650.285C3409.22 642.943 3417.85 633.963 3424.92 623.331L3424.92 623.325C3432.1 612.605 3437.14 600.285 3440.03 586.332L3440.45 584.295H3495.45L3494.92 587.297C3491.11 608.667 3484.18 627.845 3474.08 644.8C3464.01 661.722 3451.47 676.138 3436.48 688.028L3436.47 688.037C3421.48 699.783 3404.66 708.723 3386.02 714.86C3367.51 720.999 3347.73 724.059 3326.71 724.059C3291.15 724.059 3259.43 715.344 3231.64 697.865C3203.86 680.389 3182.04 655.556 3166.16 623.46C3150.27 591.321 3142.37 553.288 3142.37 509.443C3142.37 465.599 3150.27 427.566 3166.16 395.427C3182.04 363.331 3203.86 338.498 3231.64 321.022C3259.43 303.543 3291.15 294.828 3326.71 294.828C3347.74 294.828 3367.51 297.888 3386.02 304.028C3404.66 310.166 3421.49 319.175 3436.47 331.056C3451.47 342.813 3464.01 357.162 3474.08 374.083C3484.18 390.909 3491.11 410.09 3494.92 431.593L3495.45 434.592Z" fill="black"/>
<path d="M2816.36 294.828H2886.88V724.059H2831.69L2629.34 432.795V724.059H2558.82V294.828H2614.01L2816.36 586.092V294.828Z" fill="black"/>
<path fill-rule="evenodd" clip-rule="evenodd" d="M1681.73 724.059L1553.13 294.828H1625.23L1714.18 591.713L1785.96 294.828H1857.08L1928.86 591.713L2017.81 294.828H2089.91L1961.31 724.059H1889.21L1889.54 722.966L1821.52 441.643L1753.5 722.966L1753.83 724.059H1681.73Z" fill="black"/>
<path fill-rule="evenodd" clip-rule="evenodd" d="M2113.27 726.614L2244.5 297.383H2328.59L2459.82 726.614H2385.83L2359.27 639.745H2213.82L2187.27 726.614H2113.27ZM2338.96 573.316L2286.55 401.882L2234.13 573.316H2338.96Z" fill="black"/>
<path d="M1332.86 724.059C1293.01 724.059 1259.07 714.993 1231.06 696.862C1203.44 678.731 1184.1 653.9 1173.05 622.368L1231.65 588.077C1248.22 634.587 1282.55 657.841 1334.64 657.841C1360.28 657.841 1379.42 652.915 1392.05 643.061C1405.07 632.813 1411.58 619.609 1411.58 603.449C1411.58 586.5 1404.67 573.69 1390.86 565.019C1377.05 555.953 1352.59 546.1 1317.47 535.457C1297.74 529.545 1281.76 524.027 1269.53 518.903C1257.3 513.779 1244.28 506.684 1230.47 497.619C1217.05 488.159 1206.99 476.532 1200.28 462.737C1193.57 448.941 1190.22 432.781 1190.22 414.256C1190.22 377.6 1203.24 348.63 1229.28 327.346C1255.32 305.667 1286.69 294.828 1323.39 294.828C1356.54 294.828 1385.54 302.908 1410.4 319.068C1435.26 335.229 1454.39 357.498 1467.81 385.877L1410.4 418.986C1393.03 380.359 1364.03 361.046 1323.39 361.046C1303.66 361.046 1287.88 365.775 1276.04 375.235C1264.2 384.3 1258.28 396.716 1258.28 412.482C1258.28 427.854 1264.2 440.073 1276.04 449.138C1288.27 457.81 1310.17 467.072 1341.74 476.926C1357.52 482.05 1368.96 485.992 1376.07 488.751C1383.56 491.115 1393.82 495.057 1406.84 500.575C1420.26 506.093 1430.32 511.611 1437.03 517.129C1443.74 522.648 1450.84 529.545 1458.34 537.822C1466.23 546.1 1471.75 555.559 1474.91 566.201C1478.07 576.843 1479.65 588.865 1479.65 602.266C1479.65 639.71 1466.03 669.469 1438.81 691.541C1411.97 713.22 1376.66 724.059 1332.86 724.059Z" fill="black"/>
<path fill-rule="evenodd" clip-rule="evenodd" d="M490.834 49.5547L64 295.13L713.433 669.808L490.817 797.712V699.306L64.0854 454.13L64.0602 728.25L490.797 974.445L917.559 728.217L269.847 354.533L490.817 227.394V323.944L917.552 570.924V295.738L490.834 49.5547ZM490.817 857.008L764.929 699.517L814.677 728.218L490.817 915.076V857.008ZM490.817 168.077V108.901L490.799 108.891L166.99 295.192L218.371 324.835L490.817 168.077ZM439.403 729.062V885.437L218.323 757.891V602.042L439.403 729.062ZM166.909 572.503L115.491 542.961L115.477 698.557L166.909 728.23V572.503ZM542.23 294.297V138.563L866.138 325.433V481.764L542.23 294.297Z" fill="black"/>
</svg>
