<svg width="1024" height="1024" viewBox="0 0 1024 1024" fill="none" xmlns="http://www.w3.org/2000/svg">
<path fill-rule="evenodd" clip-rule="evenodd" d="M512.055 49.5547L85.2207 295.13L734.654 669.808L512.037 797.712V699.306L85.3061 454.13L85.2809 728.25L512.018 974.445L938.78 728.217L291.068 354.533L512.037 227.394V323.944L938.772 570.924V295.738L512.055 49.5547ZM512.037 857.008L786.149 699.517L835.898 728.218L512.037 915.076V857.008ZM512.037 168.077V108.901L512.02 108.891L188.211 295.192L239.591 324.835L512.037 168.077ZM460.623 729.062V885.437L239.544 757.891V602.042L460.623 729.062ZM188.13 572.503L136.712 542.961L136.697 698.557L188.13 728.23V572.503ZM563.451 294.297V138.563L887.359 325.433V481.764L563.451 294.297Z" fill="black"/>
</svg>
